#!OML:ASF G:\JayActor3\Patient Classification 1\Patient 1\Session 6\male.ASF
:FULLY-SPECIFIED
:DEGREES
969
root 4.40694 16.0142 -17.2975 4.60518 -39.4313 -358.98
lowerback 2.4979 -1.06543 -2.1644
upperback 5.09158 -1.39026 -3.20034
thorax 3.82017 -0.733344 -2.10484
lowerneck 5.33539 0.860052 4.15707
upperneck -9.70594 1.71436 2.03202
head -4.11843 0.579211 -0.144501
rclavicle -1.2921e-013 3.02153e-014
rhumerus -36.1611 15.9287 -95.4471
rradius 72.3129
rwrist 10.5476
rhand -33.7386 -6.578
rfingers 7.12502
rthumb -6.92723 -36.4447
lclavicle -1.2921e-013 3.02153e-014
lhumerus -14.0861 -12.4723 78.8737
lradius 83.8859
lwrist 7.44827
lhand -17.8538 5.45929
lfingers 7.12502
lthumb 8.4114 35.2718
rfemur -48.5121 6.07305 14.5928
rtibia 52.9325
rfoot -7.83653 -6.86235
rtoes -15.0716
lfemur -24.9672 14.7106 -31.7007
ltibia 34.8981
lfoot -17.2797 3.06034
ltoes 5.74997
970
root 4.36729 16.0258 -17.254 4.45096 -39.4539 -358.942
lowerback 2.57676 -1.06326 -2.21614
upperback 5.12775 -1.38982 -3.22762
thorax 3.81426 -0.735044 -2.1031
lowerneck 5.3309 0.874599 4.15391
upperneck -9.67037 1.73247 2.03199
head -4.10455 0.589286 -0.144785
rclavicle 9.54166e-015 -1.59028e-015
rhumerus -36.1197 15.8839 -95.459
rradius 72.4311
rwrist 10.5275
rhand -33.7152 -6.60793
rfingers 7.12502
rthumb -6.90469 -36.4753
lclavicle 9.54166e-015 -1.59028e-015
lhumerus -14.1806 -12.4056 79.0106
lradius 83.7291
lwrist 7.39706
lhand -18.2385 5.1735
lfingers 7.12502
lthumb 8.04015 35.0006
rfemur -48.386 6.24038 14.6018
rtibia 51.6315
rfoot -7.38854 -7.04408
rtoes -14.5402
lfemur -24.4001 14.6644 -31.6174
ltibia 34.5935
lfoot -17.3033 3.23224
ltoes 5.48086
971
root 4.32786 16.0376 -17.2113 4.29793 -39.4769 -358.919
lowerback 2.66908 -1.0607 -2.25822
upperback 5.16415 -1.38966 -3.24958
thorax 3.80084 -0.736631 -2.10094
lowerneck 5.33356 0.888509 4.14398
upperneck -9.64913 1.75004 2.03316
head -4.0973 0.598865 -0.143525
rclavicle -8.15017e-014 1.43125e-014
rhumerus -36.0761 15.8523 -95.4711
rradius 72.5567
rwrist 10.5116
rhand -33.7066 -6.63589
rfingers 7.12502
rthumb -6.89632 -36.5036
lclavicle -8.15017e-014 1.43125e-014
lhumerus -14.2886 -12.3496 79.1417
lradius 83.5725
lwrist 7.33468
lhand -18.6278 4.87775
lfingers 7.12502
lthumb 7.66438 34.7189
rfemur -48.2313 6.4195 14.6296
rtibia 50.356
rfoot -6.88963 -7.27019
rtoes -13.9946
lfemur -23.8253 14.6192 -31.5164
ltibia 34.2849
lfoot -17.3261 3.40581
ltoes 5.17383
972
root 4.28877 16.0494 -17.1692 4.14408 -39.5053 -358.898
lowerback 2.76826 -1.05579 -2.29697
upperback 5.19828 -1.38685 -3.27026
thorax 3.7812 -0.736786 -2.09907
lowerneck 5.3434 0.900837 4.13426
upperneck -9.63913 1.76583 2.03019
head -4.09551 0.607415 -0.143674
rclavicle -1.55052e-014 3.97569e-015
rhumerus -36.0339 15.8259 -95.4885
rradius 72.681
rwrist 10.5243
rhand -33.7265 -6.65696
rfingers 7.12502
rthumb -6.9156 -36.524
lclavicle -1.55052e-014 3.97569e-015
lhumerus -14.4032 -12.296 79.2706
lradius 83.4084
lwrist 7.2479
lhand -19.0113 4.57006
lfingers 7.12502
lthumb 7.29425 34.4243
rfemur -48.0582 6.61214 14.6624
rtibia 49.1092
rfoot -6.3428 -7.55592
rtoes -13.4469
lfemur -23.2482 14.5816 -31.4119
ltibia 33.9712
lfoot -17.348 3.57557
ltoes 4.83394
973
root 4.25001 16.061 -17.1279 3.99723 -39.5381 -358.881
lowerback 2.8671 -1.04904 -2.33431
upperback 5.22728 -1.38183 -3.28925
thorax 3.75645 -0.735767 -2.09613
lowerneck 5.35966 0.912981 4.12827
upperneck -9.63692 1.78168 2.02072
head -4.0977 0.615925 -0.146725
rclavicle 9.54166e-015 2.62396e-014
rhumerus -35.9949 15.8005 -95.5112
rradius 72.8062
rwrist 10.5556
rhand -33.7566 -6.66438
rfingers 7.12502
rthumb -6.9446 -36.5305
lclavicle 9.54166e-015 2.62396e-014
lhumerus -14.5242 -12.2503 79.3977
lradius 83.2317
lwrist 7.12612
lhand -19.3855 4.25718
lfingers 7.12502
lthumb 6.93299 34.1236
rfemur -47.8774 6.81685 14.7002
rtibia 47.8945
rfoot -5.74622 -7.91632
rtoes -12.9488
lfemur -22.6781 14.5501 -31.3062
ltibia 33.6528
lfoot -17.3679 3.73701
ltoes 4.46117
974
root 4.21159 16.0722 -17.0871 3.85754 -39.577 -358.849
lowerback 2.95428 -1.04029 -2.37878
upperback 5.24778 -1.37385 -3.31176
thorax 3.72956 -0.733399 -2.09293
lowerneck 5.37838 0.923691 4.12694
upperneck -9.63423 1.79566 2.00619
head -4.10014 0.623585 -0.152212
rclavicle 1.70955e-014 -3.73715e-014
rhumerus -35.9541 15.7729 -95.5361
rradius 72.935
rwrist 10.5741
rhand -33.7741 -6.65679
rfingers 7.12502
rthumb -6.96155 -36.5223
lclavicle 1.70955e-014 -3.73715e-014
lhumerus -14.6507 -12.2058 79.5245
lradius 83.0373
lwrist 6.96673
lhand -19.7484 3.9399
lfingers 7.12502
lthumb 6.58274 33.8176
rfemur -47.7076 7.0323 14.7255
rtibia 46.7208
rfoot -5.10432 -8.34874
rtoes -12.5251
lfemur -22.1261 14.5196 -31.2175
ltibia 33.3281
lfoot -17.3831 3.89051
ltoes 4.12238
